<svg width="75" height="75" viewBox="0 0 75 75" fill="none" xmlns="http://www.w3.org/2000/svg">
<path d="M37.5 9.375H28.125C22.9473 9.375 18.75 13.5723 18.75 18.75C18.75 23.9277 22.9473 28.125 28.125 28.125M37.5 9.375V28.125M37.5 9.375H46.875C52.0528 9.375 56.25 13.5723 56.25 18.75C56.25 23.9277 52.0528 28.125 46.875 28.125M28.125 28.125H37.5M28.125 28.125C22.9473 28.125 18.75 32.3222 18.75 37.5C18.75 42.6778 22.9473 46.875 28.125 46.875M37.5 28.125H46.875M37.5 28.125V46.875M46.875 28.125C52.0528 28.125 56.25 32.3222 56.25 37.5C56.25 42.6778 52.0528 46.875 46.875 46.875C41.6972 46.875 37.5 42.6778 37.5 37.5C37.5 32.3222 41.6972 28.125 46.875 28.125ZM37.5 46.875H28.125M37.5 46.875V56.25C37.5 61.4278 33.3028 65.625 28.125 65.625C22.9473 65.625 18.75 61.4278 18.75 56.25C18.75 51.0722 22.9473 46.875 28.125 46.875" stroke="#F0F8FF" stroke-width="7" stroke-linecap="round" stroke-linejoin="round"/>
</svg>
