<svg width="63" height="63" viewBox="0 0 63 63" fill="none" xmlns="http://www.w3.org/2000/svg">
<path d="M31.5 63C48.897 63 63 48.897 63 31.5C63 14.103 48.897 0 31.5 0C14.103 0 0 14.103 0 31.5C0 48.897 14.103 63 31.5 63Z" fill="#8FFF9A"/>
<path fill-rule="evenodd" clip-rule="evenodd" d="M44.2969 37.7094C44.2969 42.7691 40.1901 46.1278 34.1263 46.6338V51.1875H29.9722V46.5885C25.8707 46.126 21.9738 44.5506 18.7031 42.0328L21.7586 37.8473C24.4814 39.9637 27.0585 41.3437 30.1632 41.8044V32.7876C23.1919 31.0393 19.9454 28.5095 19.9454 23.312C19.9454 18.3448 24.003 14.9408 29.9722 14.4802V11.8125H34.1263V14.5727C37.373 14.9333 40.4684 16.1389 43.1038 18.0692L40.4283 22.3926C38.3276 20.8747 36.1797 19.908 33.9353 19.4493V28.1886C41.1941 29.9368 44.2969 32.7423 44.2969 37.7094ZM30.1612 27.2219V19.1264C27.155 19.3568 25.58 20.9672 25.58 22.9911C25.58 24.9204 26.4856 26.1647 30.1632 27.2239L30.1612 27.2219ZM38.6623 38.0303C38.6623 35.9632 37.6582 34.7209 33.9353 33.6617V41.9895C36.9436 41.7572 38.6623 40.2393 38.6623 38.0323V38.0303Z" fill="white"/>
</svg>
